<svg width="16" height="16" viewBox="0 0 16 16" fill="none" xmlns="http://www.w3.org/2000/svg">
<path d="M1.17342 10.1934C0.830605 9.66546 0.830605 9.00121 1.17343 8.47323C2.15297 6.96461 4.52054 4 7.99984 4C11.4791 4 13.8467 6.96462 14.8262 8.47323C15.1691 9.00121 15.1691 9.66546 14.8262 10.1934C13.8467 11.7021 11.4791 14.6667 7.99984 14.6667C4.52054 14.6667 2.15297 11.7021 1.17342 10.1934Z" stroke="white" stroke-opacity="0.5" stroke-linecap="round" stroke-linejoin="round"/>
<path d="M7.99976 11.333C9.10433 11.333 9.99976 10.4376 9.99976 9.33301C9.99976 8.22844 9.10433 7.33301 7.99976 7.33301C6.89519 7.33301 5.99976 8.22844 5.99976 9.33301C5.99976 10.4376 6.89519 11.333 7.99976 11.333Z" stroke="white" stroke-opacity="0.5" stroke-linecap="round" stroke-linejoin="round"/>
</svg>
